:SAMPLES-PER-SECOND 24
:FULLY-SPECIFIED
:DEGREES
312
root  0.476374 36.2451 14.0986 1.71463 34.21 1.1821
RightUpLeg  -29.9367 7.49563 -24.5788
RightLeg  16.6282 13.6085 4.27762
RightFoot  8.62966 -4.71058 27.1343
RightToes  -1.74623e-010 0 -2.59999e-017
Spine  2.07569 -0.542363 -2.59447
Spine1  17.8674 -2.45 5.5754
HEad  -6.66709 -31.7689 15.0879
LeftShoulder1  2.21398 -3.76632 -24.2448
LeftArm  13.2975 6.49766 -45.4518
LeftForeArm  38.2928 -68.0477 -24.4404
LeftHand  -0.568093 2.4272 22.1032
RightShoulder  4.08843 6.30607 35.7675
RightArm  -9.12093 -14.6632 22.9226
RightForeArm  77.2823 79.4501 86.764
RightHand  0.0569417 -5.77603 -20.7945
LeftUpLeg  0.634824 -8.61566 5.18571
LeftLeg  38.3629 -7.6375 -6.16722
LeftFoot  -30.2772 -0.90866 -6.49983
LeftToes  -6.27559e-011 -2.10356e-011 8.24929e-012
313
root  0.940686 36.787 12.0155 5.02814 21.3986 0.396623
RightUpLeg  -37.6584 1.67041 -16.7562
RightLeg  23.9836 6.33212 2.57225
RightFoot  11.4323 -3.31839 16.3003
RightToes  -1.74623e-010 0 -2.59999e-017
Spine  4.95417 -2.88564 -8.17411
Spine1  15.8933 -7.09892 11.8414
HEad  -9.29798 -45.5941 20.6178
LeftShoulder1  2.2338 -4.02156 -23.4319
LeftArm  15.18 5.06466 -42.0371
LeftForeArm  39.9332 -69.6851 -26.9013
LeftHand  -0.77463 1.51828 23.0641
RightShoulder  3.85541 6.09914 34.262
RightArm  -11.2292 -14.4572 21.2196
RightForeArm  76.6347 79.4216 86.9529
RightHand  -0.0175614 -5.33292 -24.2215
LeftUpLeg  -0.530581 0.930465 0.689026
LeftLeg  30.7125 1.73488 1.53164
LeftFoot  -30.6918 -0.438141 -3.64023
LeftToes  -6.27559e-011 -2.10356e-011 8.24929e-012
314
root  1.28336 37.0686 10.1087 9.0186 9.67442 -0.147866
RightUpLeg  -46.5464 3.83672 -12.4873
RightLeg  48.522 3.71432 4.21765
RightFoot  6.55987 -1.95928 12.7513
RightToes  -1.74623e-010 0 -2.59999e-017
Spine  8.54099 -4.45396 -12.5659
Spine1  14.3533 -9.80738 14.4363
HEad  -14.7203 -54.218 28.9845
LeftShoulder1  2.11492 -4.1314 -21.332
LeftArm  12.2524 5.82759 -39.5374
LeftForeArm  36.5386 -68.6787 -25.6326
LeftHand  -0.883173 1.46435 25.8951
RightShoulder  3.73761 5.96064 33.6113
RightArm  -13.4761 -10.3728 21.2684
RightForeArm  63.1101 78.9855 75.3112
RightHand  -0.0335876 -5.25954 -24.9951
LeftUpLeg  -6.70696 9.47643 -2.36528
LeftLeg  30.1229 4.26436 3.05446
LeftFoot  -30.6943 -0.495883 -3.9864
LeftToes  -6.27559e-011 -2.10356e-011 8.24929e-012
315
root  1.65424 37.3743 8.46648 13.9612 -0.758287 -1.30561
RightUpLeg  -50.3813 5.49392 -10.1962
RightLeg  70.724 3.17073 9.28321
RightFoot  9.10872 -2.56779 14.5158
RightToes  -1.74623e-010 0 -2.59999e-017
Spine  10.6136 -5.52691 -16.0701
Spine1  13.102 -11.3738 15.2249
HEad  -19.9231 -56.9084 35.4396
LeftShoulder1  2.20494 -4.61705 -20.7494
LeftArm  8.6371 7.55362 -37.6994
LeftForeArm  23.9234 -62.3749 -19.587
LeftHand  -0.83823 1.73802 26.4165
RightShoulder  3.83676 6.02946 34.3599
RightArm  -12.9912 -3.97838 21.7066
RightForeArm  46.5189 77.6239 59.4502
RightHand  -0.121915 -4.82537 -23.6011
LeftUpLeg  -14.8208 18.8313 -4.96367
LeftLeg  30.7561 1.65064 1.4537
LeftFoot  -30.1906 -0.823645 -6.05292
LeftToes  -6.27559e-011 -2.10356e-011 8.24929e-012
316
root  2.16824 38.0708 7.0628 20.708 -10.5161 -5.35692
RightUpLeg  -49.8232 5.31015 -8.28566
RightLeg  86.0016 0.667497 9.99526
RightFoot  10.7338 -2.75859 14.4596
RightToes  -1.74623e-010 0 -2.59999e-017
Spine  11.2389 -5.35067 -16.6377
Spine1  11.6581 -11.5888 16.5599
HEad  -22.1224 -56.7342 38.2774
LeftShoulder1  2.42299 -5.1312 -21.7217
LeftArm  7.8696 10.1821 -35.5497
LeftForeArm  12.0245 -54.586 -14.9065
LeftHand  -0.776476 1.84374 25.2278
RightShoulder  3.93183 6.14459 34.8592
RightArm  -9.25977 1.43582 22.9304
RightForeArm  39.7232 76.5501 52.0198
RightHand  -0.275883 -4.02795 -22.8256
LeftUpLeg  -22.6512 22.2076 -6.0805
LeftLeg  27.188 6.58441 2.17399
LeftFoot  -27.0226 -0.720862 -6.40317
LeftToes  -6.27559e-011 -2.10356e-011 8.24929e-012
317
root  2.62302 38.7013 5.95038 28.9698 -20.0102 -12.0469
RightUpLeg  -45.6821 4.50879 -8.81944
RightLeg  97.9165 -1.12284 8.2552
RightFoot  13.3638 -2.34592 11.1661
RightToes  -1.74623e-010 0 -2.59999e-017
Spine  10.5639 -3.45965 -15.8941
Spine1  11.2247 -9.8858 16.7439
HEad  -23.5934 -55.7655 41.135
LeftShoulder1  2.51509 -5.32297 -22.1825
LeftArm  9.69961 13.7323 -33.8161
LeftForeArm  3.94239 -47.7552 -12.0709
LeftHand  -0.775998 1.87355 25.4324
RightShoulder  3.8379 6.106 34.0524
RightArm  -3.19206 5.49854 26.6163
RightForeArm  40.0859 76.4339 50.9014
RightHand  -0.374911 -3.4798 -22.3014
LeftUpLeg  -28.8549 15.2441 -1.25085
LeftLeg  24.8585 23.4777 5.94547
LeftFoot  -23.196 -0.408812 -5.308
LeftToes  -6.27559e-011 -2.10356e-011 8.24929e-012
